{"title":"Wrong.Side.Of.Town.2010.x264.AC3(5.1)Multi_Sub.mkv.Zen_Bud","uid":5831609,"size":995956507,"categoryP":"video","categoryS":"movies","magnet":"?xt=urn:btih:8747ea3d4576bc3228b75793fd6729394a78651e&amp;dn=Wrong.Side.Of.Town.2010.x264.AC3%285.1%29Multi_Sub.mkv.Zen_Bud&amp;tr=udp%3A%2F%2Ftracker.openbittorrent.com%3A80&amp;tr=udp%3A%2F%2Fopen.demonii.com%3A1337&amp;tr=udp%3A%2F%2Ftracker.coppersurfer.tk%3A6969&amp;tr=udp%3A%2F%2Fexodus.desync.com%3A6969","seeders":0,"leechers":0,"uploader":"Zen_Bud","files":-1,"time":1284538185,"description":"\n********Wrong.Side.Of.Town.2010.x264.AC3(5.1)Multi_Sub.mkv.Zen_Bud*********\n\nFormat                           : Matroska\nFile size                        : 950 MiB\nDuration                         : 1h 21mn\nOverall bit rate                 : 1 621 Kbps\nWriting application              : HandBrake svn3510\nWriting library                  : libmkv 0.6.4.1\n\nVideo\n\nFormat                           : AVC\nDuration                         : 1h 21mn\nBit rate                         : 1 140 Kbps\nWidth                            : 720 pixels\nHeight                           : 554 pixels\nDisplay aspect ratio             : 16:9\nStream size                      : 668 MiB (70%)\nWriting library                  : x264 core 104\n\nAudio\nFormat                           : AC-3\nDuration                         : 1h 21mn\nBit rate                         : 448 Kbps\nChannel(s)                       : 6 channels\nChannel positions                : Front: L C R, Side: L R, LFE\nSampling rate                    : 48.0 KHz\nBit depth                        : 16 bits\nStream size                      : 263 MiB (28%)\nLanguage                         : English\n\nText #1\nLanguage                         : Swedish\n\nText #2\nLanguage                         : Norwegian\n\nText #3\nLanguage                         : Finnish\n\nMenu\n00:00:00.000                     : Chapter  1\n00:06:46.560                     : Chapter  2\n\n\n","torrent":{"xt":"urn:btih:8747ea3d4576bc3228b75793fd6729394a78651e","amp;dn":"Wrong.Side.Of.Town.2010.x264.AC3%285.1%29Multi_Sub.mkv.Zen_Bud","amp;tr":["udp%3A%2F%2Ftracker.openbittorrent.com%3A80","udp%3A%2F%2Fopen.demonii.com%3A1337","udp%3A%2F%2Ftracker.coppersurfer.tk%3A6969","udp%3A%2F%2Fexodus.desync.com%3A6969"],"infoHash":"8747ea3d4576bc3228b75793fd6729394a78651e","infoHashBuffer":{"type":"Buffer","data":[135,71,234,61,69,118,188,50,40,183,87,147,253,103,41,57,74,120,101,30]},"announce":[],"urlList":[]}}